<svg width="34" height="39" viewBox="0 0 34 39" fill="none" xmlns="http://www.w3.org/2000/svg">
<path d="M11.2321 21.5251H8.19643C7.69554 21.5251 7.28571 21.1244 7.28571 20.6345V17.6658C7.28571 17.1759 7.69554 16.7751 8.19643 16.7751H11.2321C11.733 16.7751 12.1429 17.1759 12.1429 17.6658V20.6345C12.1429 21.1244 11.733 21.5251 11.2321 21.5251ZM19.4286 20.6345V17.6658C19.4286 17.1759 19.0188 16.7751 18.5179 16.7751H15.4821C14.9812 16.7751 14.5714 17.1759 14.5714 17.6658V20.6345C14.5714 21.1244 14.9812 21.5251 15.4821 21.5251H18.5179C19.0188 21.5251 19.4286 21.1244 19.4286 20.6345ZM26.7143 20.6345V17.6658C26.7143 17.1759 26.3045 16.7751 25.8036 16.7751H22.7679C22.267 16.7751 21.8571 17.1759 21.8571 17.6658V20.6345C21.8571 21.1244 22.267 21.5251 22.7679 21.5251H25.8036C26.3045 21.5251 26.7143 21.1244 26.7143 20.6345ZM19.4286 27.7595V24.7908C19.4286 24.3009 19.0188 23.9001 18.5179 23.9001H15.4821C14.9812 23.9001 14.5714 24.3009 14.5714 24.7908V27.7595C14.5714 28.2494 14.9812 28.6501 15.4821 28.6501H18.5179C19.0188 28.6501 19.4286 28.2494 19.4286 27.7595ZM12.1429 27.7595V24.7908C12.1429 24.3009 11.733 23.9001 11.2321 23.9001H8.19643C7.69554 23.9001 7.28571 24.3009 7.28571 24.7908V27.7595C7.28571 28.2494 7.69554 28.6501 8.19643 28.6501H11.2321C11.733 28.6501 12.1429 28.2494 12.1429 27.7595ZM26.7143 27.7595V24.7908C26.7143 24.3009 26.3045 23.9001 25.8036 23.9001H22.7679C22.267 23.9001 21.8571 24.3009 21.8571 24.7908V27.7595C21.8571 28.2494 22.267 28.6501 22.7679 28.6501H25.8036C26.3045 28.6501 26.7143 28.2494 26.7143 27.7595ZM34 8.46265V34.5876C34 36.5544 32.3683 38.1501 30.3571 38.1501H3.64286C1.6317 38.1501 0 36.5544 0 34.5876V8.46265C0 6.49585 1.6317 4.90015 3.64286 4.90015H7.28571V1.04077C7.28571 0.550928 7.69554 0.150146 8.19643 0.150146H11.2321C11.733 0.150146 12.1429 0.550928 12.1429 1.04077V4.90015H21.8571V1.04077C21.8571 0.550928 22.267 0.150146 22.7679 0.150146H25.8036C26.3045 0.150146 26.7143 0.550928 26.7143 1.04077V4.90015H30.3571C32.3683 4.90015 34 6.49585 34 8.46265ZM30.3571 34.1423V12.0251H3.64286V34.1423C3.64286 34.3873 3.84777 34.5876 4.09821 34.5876H29.9018C30.1522 34.5876 30.3571 34.3873 30.3571 34.1423Z" fill="white" fill-opacity="0.53"/>
</svg>
