<svg width="38" height="29" viewBox="0 0 38 29" fill="none" xmlns="http://www.w3.org/2000/svg">
<path d="M34.4375 0.150146H3.5625C1.59496 0.150146 0 1.71713 0 3.65015V24.6501C0 26.5832 1.59496 28.1501 3.5625 28.1501H34.4375C36.405 28.1501 38 26.5832 38 24.6501V3.65015C38 1.71713 36.405 0.150146 34.4375 0.150146ZM34.4375 3.65015V6.62551C32.7734 7.9569 30.1203 10.0271 24.4486 14.3904C23.1987 15.3563 20.7228 17.6769 19 17.6499C17.2775 17.6772 14.8008 15.356 13.5514 14.3904C7.88055 10.0278 5.22686 7.95711 3.5625 6.62551V3.65015H34.4375ZM3.5625 24.6501V11.1167C5.26315 12.4475 7.67489 14.3149 11.3509 17.1429C12.9731 18.3975 15.8139 21.1669 19 21.1501C22.1704 21.1669 24.9753 18.4376 26.6485 17.1435C30.3244 14.3156 32.7368 12.4476 34.4375 11.1167V24.6501H3.5625Z" fill="white" fill-opacity="0.53"/>
</svg>
