<svg width="38" height="31" viewBox="0 0 38 31" fill="none" xmlns="http://www.w3.org/2000/svg">
<path d="M18.4962 7.93293L6.33383 18.1026V29.0786C6.33383 29.3628 6.44504 29.6353 6.64298 29.8363C6.84091 30.0373 7.10938 30.1501 7.38931 30.1501L14.7816 30.1307C15.0606 30.1293 15.3277 30.0158 15.5245 29.815C15.7213 29.6142 15.8318 29.3424 15.8318 29.0592V22.6493C15.8318 22.3651 15.943 22.0926 16.1409 21.8916C16.3389 21.6907 16.6073 21.5778 16.8873 21.5778H21.1092C21.3891 21.5778 21.6575 21.6907 21.8555 21.8916C22.0534 22.0926 22.1646 22.3651 22.1646 22.6493V29.0545C22.1642 29.1955 22.1912 29.3352 22.244 29.4656C22.2969 29.596 22.3745 29.7145 22.4726 29.8144C22.5707 29.9142 22.6872 29.9934 22.8154 30.0475C22.9437 30.1016 23.0812 30.1294 23.2201 30.1294L30.6097 30.1501C30.8897 30.1501 31.1581 30.0373 31.3561 29.8363C31.554 29.6353 31.6652 29.3628 31.6652 29.0786V18.0952L19.5055 7.93293C19.3625 7.81595 19.1845 7.75216 19.0008 7.75216C18.8172 7.75216 18.6391 7.81595 18.4962 7.93293ZM37.7078 14.8451L32.193 10.2301V0.953808C32.193 0.740663 32.1096 0.536249 31.9611 0.385534C31.8126 0.234818 31.6113 0.150146 31.4013 0.150146H27.7072C27.4972 0.150146 27.2959 0.234818 27.1474 0.385534C26.999 0.536249 26.9156 0.740663 26.9156 0.953808V5.81663L21.0095 0.883487C20.4428 0.409983 19.7316 0.151093 18.9975 0.151093C18.2635 0.151093 17.5523 0.409983 16.9855 0.883487L0.287286 14.8451C0.207128 14.9124 0.140809 14.995 0.0921204 15.0883C0.0434314 15.1816 0.0133259 15.2837 0.00352407 15.3888C-0.00627773 15.4939 0.00441628 15.5999 0.034995 15.7009C0.0655738 15.8018 0.115438 15.8956 0.181739 15.9769L1.8639 18.053C1.93002 18.1347 2.01135 18.2022 2.10323 18.2519C2.19511 18.3016 2.29574 18.3324 2.39935 18.3425C2.50296 18.3527 2.60753 18.3419 2.70707 18.311C2.8066 18.2801 2.89915 18.2295 2.97941 18.1622L18.4962 5.18709C18.6391 5.07011 18.8172 5.00632 19.0008 5.00632C19.1845 5.00632 19.3625 5.07011 19.5055 5.18709L35.0229 18.1622C35.1031 18.2295 35.1955 18.2801 35.2949 18.3112C35.3943 18.3422 35.4987 18.3531 35.6022 18.3431C35.7058 18.3332 35.8064 18.3026 35.8982 18.2532C35.9901 18.2038 36.0715 18.1364 36.1378 18.055L37.8199 15.9789C37.8862 15.8971 37.9358 15.8028 37.9661 15.7015C37.9963 15.6001 38.0065 15.4937 37.996 15.3883C37.9856 15.283 37.9548 15.1807 37.9053 15.0875C37.8559 14.9943 37.7887 14.9119 37.7078 14.8451Z" fill="white" fill-opacity="0.53"/>
</svg>
