<svg width="38" height="31" viewBox="0 0 38 31" fill="none" xmlns="http://www.w3.org/2000/svg">
<path d="M35.7721 0.153783C32.1567 0.362041 24.9709 1.12007 20.5349 3.87631C20.2288 4.06649 20.0552 4.40465 20.0552 4.75822V29.1244C20.0552 29.8978 20.8885 30.3867 21.5911 30.0277C26.1551 27.6961 32.7558 27.0599 36.0195 26.8858C37.1338 26.8262 38 25.9195 38 24.8327V2.20958C38.0007 1.02364 36.9873 0.0841405 35.7721 0.153783ZM17.4651 3.87631C13.0297 1.12007 5.84392 0.362711 2.22858 0.153783C1.01335 0.0841405 0 1.02364 0 2.20958V24.8333C0 25.9208 0.86623 26.8275 1.98052 26.8865C5.24554 27.0606 11.8495 27.6974 16.4135 30.0304C17.1142 30.3887 17.9448 29.9005 17.9448 29.1291V4.74617C17.9448 4.39193 17.7719 4.06716 17.4651 3.87631Z" fill="white" fill-opacity="0.53"/>
</svg>
