<svg width="36" height="34" viewBox="0 0 36 34" fill="none" xmlns="http://www.w3.org/2000/svg">
<path d="M34.9273 19.2126H19.2243L29.6822 29.3982C30.0819 29.7875 30.7397 29.8191 31.1506 29.4421C33.7117 27.0921 35.4733 23.9242 35.9901 20.3631C36.0788 19.7534 35.5593 19.2126 34.9273 19.2126ZM33.8797 15.036C33.3344 7.33634 27.0173 1.18358 19.1118 0.652477C18.5083 0.611871 18.0001 1.10752 18.0001 1.69663V16.1188H32.8083C33.4132 16.1188 33.9214 15.6238 33.8797 15.036ZM14.8236 19.2126V3.91835C14.8236 3.30282 14.2684 2.79686 13.643 2.88322C5.75682 3.96863 -0.271178 10.6789 0.00940931 18.7208C0.297938 26.9799 7.59916 33.7527 16.083 33.649C19.4182 33.6084 22.5001 32.5616 25.034 30.8111C25.5568 30.4501 25.5912 29.7005 25.1379 29.259L14.8236 19.2126Z" fill="white" fill-opacity="0.53"/>
</svg>
