<svg width="36" height="37" viewBox="0 0 36 37" fill="none" xmlns="http://www.w3.org/2000/svg">
<path d="M13.5 14.7751C13.5 13.5327 12.4924 12.5251 11.25 12.5251H10.125C7.63945 12.5251 5.625 14.5396 5.625 17.0251V20.4001C5.625 22.8857 7.63945 24.9001 10.125 24.9001H11.25C12.4924 24.9001 13.5 23.8926 13.5 22.6501V14.7751ZM25.875 24.9001C28.3605 24.9001 30.375 22.8857 30.375 20.4001V17.0251C30.375 14.5396 28.3605 12.5251 25.875 12.5251H24.75C23.5076 12.5251 22.5 13.5327 22.5 14.7751V22.6501C22.5 23.8926 23.5076 24.9001 24.75 24.9001H25.875ZM18 0.150146C7.95797 0.150146 0.322031 8.50538 0 18.1501V19.2751C0 19.8967 0.503438 20.4001 1.125 20.4001H2.25C2.87156 20.4001 3.375 19.8967 3.375 19.2751V18.1501C3.375 10.086 9.93586 3.52515 18 3.52515C26.0641 3.52515 32.625 10.086 32.625 18.1501H32.6166C32.6222 18.321 32.625 29.8023 32.625 29.8023C32.625 31.4441 31.294 32.7751 29.6522 32.7751H22.5C22.5 30.9112 20.989 29.4001 19.125 29.4001H16.875C15.011 29.4001 13.5 30.9112 13.5 32.7751C13.5 34.6391 15.011 36.1501 16.875 36.1501H29.6522C33.158 36.1501 36 33.3081 36 29.8023V18.1501C35.678 8.50538 28.042 0.150146 18 0.150146Z" fill="white" fill-opacity="0.53"/>
</svg>
