<svg width="28" height="39" viewBox="0 0 28 39" fill="none" xmlns="http://www.w3.org/2000/svg">
<path d="M24.5 4.90015H18.6667C18.6667 2.28022 16.574 0.150146 14 0.150146C11.426 0.150146 9.33333 2.28022 9.33333 4.90015H3.5C1.56771 4.90015 0 6.49585 0 8.46265V34.5876C0 36.5544 1.56771 38.1501 3.5 38.1501H24.5C26.4323 38.1501 28 36.5544 28 34.5876V8.46265C28 6.49585 26.4323 4.90015 24.5 4.90015ZM7 31.6189C6.03021 31.6189 5.25 30.8248 5.25 29.8376C5.25 28.8505 6.03021 28.0564 7 28.0564C7.96979 28.0564 8.75 28.8505 8.75 29.8376C8.75 30.8248 7.96979 31.6189 7 31.6189ZM7 24.4939C6.03021 24.4939 5.25 23.6998 5.25 22.7126C5.25 21.7255 6.03021 20.9314 7 20.9314C7.96979 20.9314 8.75 21.7255 8.75 22.7126C8.75 23.6998 7.96979 24.4939 7 24.4939ZM7 17.3689C6.03021 17.3689 5.25 16.5748 5.25 15.5876C5.25 14.6005 6.03021 13.8064 7 13.8064C7.96979 13.8064 8.75 14.6005 8.75 15.5876C8.75 16.5748 7.96979 17.3689 7 17.3689ZM14 3.1189C14.9698 3.1189 15.75 3.91304 15.75 4.90015C15.75 5.88726 14.9698 6.6814 14 6.6814C13.0302 6.6814 12.25 5.88726 12.25 4.90015C12.25 3.91304 13.0302 3.1189 14 3.1189ZM23.3333 30.4314C23.3333 30.758 23.0708 31.0251 22.75 31.0251H12.25C11.9292 31.0251 11.6667 30.758 11.6667 30.4314V29.2439C11.6667 28.9173 11.9292 28.6501 12.25 28.6501H22.75C23.0708 28.6501 23.3333 28.9173 23.3333 29.2439V30.4314ZM23.3333 23.3064C23.3333 23.633 23.0708 23.9001 22.75 23.9001H12.25C11.9292 23.9001 11.6667 23.633 11.6667 23.3064V22.1189C11.6667 21.7923 11.9292 21.5251 12.25 21.5251H22.75C23.0708 21.5251 23.3333 21.7923 23.3333 22.1189V23.3064ZM23.3333 16.1814C23.3333 16.508 23.0708 16.7751 22.75 16.7751H12.25C11.9292 16.7751 11.6667 16.508 11.6667 16.1814V14.9939C11.6667 14.6673 11.9292 14.4001 12.25 14.4001H22.75C23.0708 14.4001 23.3333 14.6673 23.3333 14.9939V16.1814Z" fill="white" fill-opacity="0.53"/>
</svg>
