<svg width="21" height="22" viewBox="0 0 21 22" fill="none" xmlns="http://www.w3.org/2000/svg">
<path d="M20.7318 13.6435L18.8477 12.5524C19.0379 11.5234 19.0379 10.4677 18.8477 9.43871L20.7318 8.34759C20.9485 8.2234 21.0458 7.96614 20.975 7.72663C20.4841 6.1476 19.6482 4.71938 18.5558 3.53067C18.3877 3.34882 18.1135 3.30446 17.9012 3.42866L16.0172 4.51978C15.2255 3.83672 14.3144 3.3089 13.3281 2.96293V0.785119C13.3281 0.536733 13.1557 0.319395 12.9124 0.26617C11.2893 -0.0975387 9.62632 -0.0797969 8.08279 0.26617C7.83954 0.319395 7.66706 0.536733 7.66706 0.785119V2.96737C6.68521 3.31777 5.77413 3.84559 4.97804 4.52422L3.09839 3.43309C2.88167 3.3089 2.61189 3.34882 2.44382 3.53511C1.35141 4.71938 0.515518 6.1476 0.0245956 7.73106C-0.0505906 7.97058 0.0511319 8.22783 0.267845 8.35203L2.15192 9.44315C1.96175 10.4722 1.96175 11.5278 2.15192 12.5568L0.267845 13.648C0.0511319 13.7722 -0.0461679 14.0294 0.0245956 14.2689C0.515518 15.848 1.35141 17.2762 2.44382 18.4649C2.61189 18.6467 2.8861 18.6911 3.09839 18.5669L4.98246 17.4758C5.77413 18.1588 6.68521 18.6867 7.67148 19.0326V21.2149C7.67148 21.4633 7.84397 21.6806 8.08721 21.7338C9.71035 22.0975 11.3733 22.0798 12.9168 21.7338C13.1601 21.6806 13.3326 21.4633 13.3326 21.2149V19.0326C14.3144 18.6822 15.2255 18.1544 16.0216 17.4758L17.9057 18.5669C18.1224 18.6911 18.3922 18.6512 18.5602 18.4649C19.6526 17.2806 20.4885 15.8524 20.9794 14.2689C21.0458 14.025 20.9485 13.7677 20.7318 13.6435ZM10.4976 14.5439C8.54718 14.5439 6.95942 12.9516 6.95942 10.9956C6.95942 9.03952 8.54718 7.44719 10.4976 7.44719C12.448 7.44719 14.0358 9.03952 14.0358 10.9956C14.0358 12.9516 12.448 14.5439 10.4976 14.5439Z" fill="black"/>
</svg>
