<svg width="24" height="24" viewBox="0 0 24 24" fill="none" xmlns="http://www.w3.org/2000/svg">
<g id="Pencil edit">
<path id="Vector" d="M15.586 5.58592C15.7705 5.3949 15.9912 5.24253 16.2352 5.13772C16.4792 5.0329 16.7416 4.97772 17.0072 4.97542C17.2728 4.97311 17.5361 5.02371 17.7819 5.12427C18.0277 5.22484 18.251 5.37334 18.4388 5.56113C18.6266 5.74891 18.7751 5.97222 18.8756 6.21801C18.9762 6.4638 19.0268 6.72716 19.0245 6.99272C19.0222 7.25828 18.967 7.52072 18.8622 7.76473C18.7574 8.00874 18.605 8.22942 18.414 8.41392L17.621 9.20692L14.793 6.37892L15.586 5.58592V5.58592ZM13.379 7.79292L5 16.1719V18.9999H7.828L16.208 10.6209L13.378 7.79292H13.379Z" fill="#252C32"/>
</g>
</svg>
